<svg xmlns="http://www.w3.org/2000/svg" height="24px" width="24px" viewBox="0 0 150 100" fill="none" stroke="#000" stroke-width="3"><path d="m 56.073212,76.492299 q 0,6.192777 -1.457124,11.656992 -1.335697,5.464215 -4.85708,9.592733 -3.399956,4.007086 -9.349879,6.435636 -5.828496,2.30711 -14.814094,2.30711 -8.257036,0 -14.206959,-1.94283 -5.9499234,-2.06426 -9.8355875,-4.735657 L 7.8666926,85.113616 q 3.5213834,2.064259 7.5284744,3.64281 4.007091,1.578551 8.742744,1.578551 6.921339,0 9.957014,-3.399956 Q 37.1306,83.535065 37.1306,75.520883 V 20.635878 H 56.073212 Z M 104.0368,41.278468 h 14.08553 l 4.00709,-20.64259 h 15.78551 l -4.00709,20.64259 h 8.86417 v 13.964105 h -11.53557 l -2.91424,14.935521 h 14.44981 V 84.1422 H 125.6508 l -3.88566,20.64259 H 105.97963 L 109.86529,84.1422 H 95.77976 l -3.885664,20.64259 H 76.108586 L 79.99425,84.1422 H 71.251506 V 70.178094 H 82.665644 L 85.579892,55.242573 H 71.251506 V 41.278468 h 16.99978 l 4.007091,-20.64259 h 15.785513 z m -5.585646,28.899626 h 14.085536 l 2.91424,-14.935521 H 101.3654 Z"/></svg>
